<svg width="159.2" height="50" xmlns="http://www.w3.org/2000/svg">
 <g>
  <title>Layer 1</title>
  <g id="svg_1">
   <path id="LC_SIGN" class="st0" d="m13.2,11.3l-4.5,0c0,0 -8.7,18.3 -8.7,22.2s4.8,5.5 8.5,5.5l11.7,0l0,-1.2c0,0 -1.9,-1.2 -2,-3.2c0,0 -12,0.8 -12.7,-2s6.1,-17.2 7.7,-21.3zm39.5,0l-2,4.2l-10.5,0c0,0 -8.7,-0.6 -12.7,6s-6,13 4,13l10.7,0c0,0 -0.5,3.4 -1.7,4.2l-11.5,0c0,0 -7.2,0 -9.2,-4s1.3,-10.6 3.2,-13.7s7.1,-9.7 18,-9.7l11.7,0zm36,4.2l1.5,-4.2l-13.5,0c0,0 -11.4,-1.1 -15,6.7c-3.6,7.8 5.4,8.5 7.5,8.5l7.5,0l2,-4.5l-8.5,0c0,0 -4,0.4 -4,-2.5s4.3,-4 7.2,-4l15.3,0zm-6.5,6.5l4.5,0l-3.5,8.7c0,0 -3.5,8.2 -13.7,8.2l-16,0l2,-4.5l14.7,0c0,0 6.6,0.5 8.7,-4.7c2.2,-5.2 3.3,-7.7 3.3,-7.7l0,0zm13,-10.7l-12,27.5l5,0c0,0 2.7,11.2 16.5,11.2s29.5,-13 33.5,-24.2l4,13l5.3,0l11.7,-27.5l-5.2,0l-8.5,20.7l-6.2,-21.5c0,0 -3.2,-10.5 -15.5,-10.5c0,0 -5.4,-0.1 -7.7,1.2c0,0 13.4,-2.7 17.2,8.7s-6.7,25 -15.7,30.5c-9.2,5.7 -22.1,9.3 -28.7,-3l11,-26.2c-0.2,0.1 -4.7,0.1 -4.7,0.1zm24.5,23.2l-1.7,4.2c0,0 -10,0.2 -12.5,0.2c-2.5,0 -8.2,-0.7 -9.7,-4.2s1.2,-10.1 3.2,-13.4s7.2,-10 16.7,-10l14,0l-1.7,4.2l-12,0c-1.1,0 -7.8,-0.5 -11.2,4.7c-3.5,5.3 -8,14.2 1.2,14.2l13.7,0l0,0.1zm-11.2,-6.5l1.7,-4l6,0c0.9,0 8.3,-0.3 4.5,8.5l-4.7,0c0,0 1.3,-2.7 0.5,-3.7c-0.8,-1.1 -4.5,-0.8 -8,-0.8z" fill-rule="evenodd" clip-rule="evenodd" fill="#FF7500"/>
  </g>
 </g>

</svg>